<svg width="1080" height="1080" viewBox="0 0 1080 1080" fill="none" xmlns="http://www.w3.org/2000/svg">
<g clip-path="url(#clip0_93_11)">
<rect width="1080" height="1080" fill="white"/>
<g clip-path="url(#clip1_93_11)">
<path d="M1080 0H-840V1080H1080V0Z" fill="#0A1333"/>
<path d="M-840 -590C-805.333 -584.083 -706.667 -582.333 -632 -554.5C-557.333 -526.667 -472 -456.167 -392 -423C-312 -389.833 -242.667 -378 -152 -355.5C-61.3333 -333 72 -310.5 152 -288C232 -265.5 258.667 -232.333 328 -220.5C397.333 -208.667 488 -239.5 568 -217C648 -194.5 722.667 -113.333 808 -85.5C893.333 -57.6667 1034.67 -55.9167 1080 -50V1080H-840V-590Z" fill="url(#paint0_linear_93_11)"/>
<path d="M-840 -461.48C-781.333 -440.431 -589.333 -371.95 -488 -335.186C-386.667 -298.421 -338.667 -261.656 -232 -240.891C-125.333 -220.127 34.6667 -231.362 152 -210.597C269.333 -189.832 365.333 -158.401 472 -116.303C578.667 -74.2047 690.667 5.22669 792 41.9915C893.333 78.7562 1032 93.9034 1080 104.286V1080H-840V-461.48Z" fill="url(#paint1_linear_93_11)"/>
<path d="M-840 -232.96C-781.333 -218.576 -621.333 -191.422 -488 -146.654C-354.667 -101.885 -168 -14.4495 -40 35.6526C88 85.7547 152 114.523 280 153.959C408 193.394 594.667 238.163 728 272.265C861.333 306.367 1021.33 344.187 1080 358.571V1080H-840V-232.96Z" fill="url(#paint2_linear_93_11)"/>
<path d="M-840 -104.44C-788.952 -84.4091 -630.476 -18.9831 -533.714 15.7454C-436.952 50.4738 -340.19 85.2022 -259.429 103.931C-178.667 122.659 -140.571 109.388 -49.1429 128.116C42.2857 146.844 187.048 176.24 289.143 216.301C391.238 256.363 482.667 339.092 563.429 368.487C644.19 397.882 687.619 368.61 773.714 392.672C859.809 416.734 1028.95 492.826 1080 512.857V1080H-840V-104.44Z" fill="url(#paint3_linear_93_11)"/>
<path d="M-840 -75.9199C-788.952 -65.9422 -630.476 -41.3425 -533.714 -16.0538C-436.952 9.23491 -340.19 34.5236 -259.429 75.8123C-178.667 117.101 -129.905 201.056 -49.1429 231.678C31.619 262.3 123.048 228.923 225.143 259.545C327.238 290.167 461.333 384.789 563.429 415.411C665.524 446.033 751.619 417.988 837.714 443.277C923.809 468.566 1039.62 546.499 1080 567.143V1080H-840V-75.9199Z" fill="url(#paint4_linear_93_11)"/>
<path d="M-840 52.6001C-754.667 85.8013 -493.333 201.405 -328 251.807C-162.667 302.21 2.66667 309.945 152 355.014C301.333 400.083 413.333 461.152 568 522.222C722.667 583.291 994.667 688.228 1080 721.429V1080H-840V52.6001Z" fill="url(#paint5_linear_93_11)"/>
<path d="M-840 281.12C-805.333 290.257 -706.667 312.336 -632 335.944C-557.333 359.552 -472 393.827 -392 422.769C-312 451.71 -232 469.985 -152 509.593C-72 549.201 -2.66666 631.476 88 660.417C178.667 689.359 312 654.3 392 683.242C472 712.183 498.667 805.124 568 834.066C637.333 863.007 722.667 833.282 808 856.89C893.333 880.498 1034.67 955.91 1080 975.714V1080H-840V281.12Z" fill="url(#paint6_linear_93_11)"/>
</g>
</g>
<defs>
<linearGradient id="paint0_linear_93_11" x1="120" y1="-590" x2="120" y2="1080" gradientUnits="userSpaceOnUse">
<stop stop-color="#223781"/>
<stop offset="1" stop-color="#070208"/>
</linearGradient>
<linearGradient id="paint1_linear_93_11" x1="120" y1="-461.48" x2="120" y2="1080" gradientUnits="userSpaceOnUse">
<stop stop-color="#223781"/>
<stop offset="1" stop-color="#070208"/>
</linearGradient>
<linearGradient id="paint2_linear_93_11" x1="120" y1="-232.96" x2="120" y2="1080" gradientUnits="userSpaceOnUse">
<stop stop-color="#222481"/>
<stop offset="1" stop-color="#080208"/>
</linearGradient>
<linearGradient id="paint3_linear_93_11" x1="120" y1="-104.44" x2="120" y2="1080" gradientUnits="userSpaceOnUse">
<stop stop-color="#B2BFF0"/>
<stop offset="1" stop-color="#B431D8"/>
</linearGradient>
<linearGradient id="paint4_linear_93_11" x1="120" y1="-75.9199" x2="120" y2="1080" gradientUnits="userSpaceOnUse">
<stop stop-color="#B2B3F0"/>
<stop offset="1" stop-color="#D531D8"/>
</linearGradient>
<linearGradient id="paint5_linear_93_11" x1="120" y1="52.6001" x2="120" y2="1080" gradientUnits="userSpaceOnUse">
<stop stop-color="#B2BFF0"/>
<stop offset="1" stop-color="#B431D8"/>
</linearGradient>
<linearGradient id="paint6_linear_93_11" x1="120" y1="281.12" x2="120" y2="1080" gradientUnits="userSpaceOnUse">
<stop stop-color="#B2CCF0"/>
<stop offset="1" stop-color="#9231D8"/>
</linearGradient>
<clipPath id="clip0_93_11">
<rect width="1080" height="1080" fill="white"/>
</clipPath>
<clipPath id="clip1_93_11">
<rect width="1920" height="1080" fill="white" transform="translate(-840)"/>
</clipPath>
</defs>
</svg>
